# xmcd
#
# Track frame offsets: 
#        150
#        18230
#        36815
#        56442
#        75820
#        96302
#        115927
#        136057
#        154242
#        175057
#
# Disc length: 2634 seconds
#
# Revision: 7
# Processed by: cddbd v1.5.2PL0 Copyright (c) Steve Scherf et al.
# Submitted via: ExactAudioCopyFreeDBPlugin 1.0
#
DISCID=6d0a480a
DTITLE=松田聖子 - Citron
DYEAR=1988
DGENRE=JPop
TTITLE0=Blue
TTITLE1=Marrakech
TTITLE2=Every Little Hurt
TTITLE3=You Can't Find Me
TTITLE4=抱いて･･･
TTITLE5=We Never Get To It
TTITLE6=続･赤いスイートピー
TTITLE7=No.1
TTITLE8=四月は風の旅人
TTITLE9=林檎酒の日々
EXTD=YEAR: 1988
EXTT0=
EXTT1=
EXTT2=
EXTT3=
EXTT4=
EXTT5=
EXTT6=
EXTT7=
EXTT8=
EXTT9=
PLAYORDER=
